<svg height="512" viewBox="0 0 64 64" width="512" xmlns="http://www.w3.org/2000/svg"><g id="Fill_Outline" data-name="Fill Outline"><g id="Stroke_copy" data-name="Stroke copy"><g><g><path d="m47.685 3 3.09 4.489 5.139-1.815-.139 5.448 5.225 1.552-3.315 4.326 3.315 4.326-5.225 1.552.139 5.448-5.139-1.815-3.09 4.489-3.09-4.489-5.139 1.815.139-5.448-5.225-1.552 3.315-4.326-3.315-4.326 5.225-1.552-.139-5.448 5.139 1.815z" fill="#f9e109"/><path d="m45.374 24.115-3.844 1.358.104-4.076-3.909-1.161 2.48-3.236-2.48-3.236 3.909-1.161-.104-4.076 3.844 1.358 2.311-3.358 2.312 3.358 3.844-1.358-.104 4.076 3.908 1.161-2.479 3.236 2.479 3.236-3.908 1.161.104 4.076-3.844-1.358-2.312 3.358z" fill="#fcbc04"/><circle cx="47.685" cy="17" fill="#f8664f" r="5"/></g><path d="m49 26a23 23 0 1 0 -43 11.353v17.647a3 3 0 0 0 6 0v-4a3 3 0 0 1 6 0v2a3 3 0 0 0 6 0 3 3 0 0 1 6 0v5a3 3 0 0 0 6 0v-9a3 3 0 0 1 6 0 3 3 0 0 0 6 0v-16.28a22.98 22.98 0 0 0 1-6.72z" fill="#57b7eb"/><path d="m34 36a23 23 0 0 1 -22.479-27.866 22.987 22.987 0 0 0 -5.521 29.219v17.647a3 3 0 0 0 6 0v-4a3 3 0 0 1 6 0v2a3 3 0 0 0 6 0 3 3 0 0 1 6 0v5a3 3 0 0 0 6 0v-9a3 3 0 0 1 6 0 3 3 0 0 0 6 0v-16.28c.185-.606.338-1.224.473-1.849a22.9 22.9 0 0 1 -14.473 5.129z" fill="#4891d3"/><g fill="#c4f236"><path d="m26 23-4 1v-6l-8 1 5-6-7.269-5.032a22.985 22.985 0 0 0 -5.731 29.385v17.477a3.114 3.114 0 0 0 2.839 3.17 3 3 0 0 0 3.161-3v-10.858a6.862 6.862 0 0 1 6.105-6.82 2.031 2.031 0 0 0 1.595-2.922 2.032 2.032 0 0 1 2.069-2.924l4.231.524z"/><path d="m38.824 6.905-6.824 4.095 5 3-4 4v5l6 1-3 6 6 3v16a3 3 0 0 0 6 0v-16.28a23.02 23.02 0 0 0 -9.176-25.815z"/><path d="m27 13 5.223-9.141a22.978 22.978 0 0 0 -12.63.052l3.407 4.089v4z"/></g><path d="m42 15v4a2 2 0 0 1 -2 2 2 2 0 0 1 -2-2v-4z" fill="#57b7eb"/><path d="m11 13a23.1 23.1 0 0 1 .517-4.853 22.974 22.974 0 0 0 -5.517 29.206v17.477a3.114 3.114 0 0 0 2.839 3.17 3 3 0 0 0 3.161-3v-10.858a6.862 6.862 0 0 1 6.105-6.82 2.031 2.031 0 0 0 1.595-2.922 2.027 2.027 0 0 1 .9-2.713 22.963 22.963 0 0 1 -9.6-18.687z" fill="#a1d51c"/><path d="m8 24v7a2 2 0 0 0 4 0v-4a2 2 0 0 0 4 0v-3z" fill="#57b7eb"/><path d="m45 45v-8.439a2.171 2.171 0 0 0 -2.969-2l-.031.007v14.262a3.114 3.114 0 0 0 2.839 3.17 3 3 0 0 0 3.161-3v-.141a3.992 3.992 0 0 1 -3-3.859z" fill="#a1d51c"/><path d="m33 54v-10.439a2.171 2.171 0 0 0 -2.969-2l-.031.007v16.262a3.114 3.114 0 0 0 2.839 3.17 3 3 0 0 0 3.161-3v-.141a3.992 3.992 0 0 1 -3-3.859z" fill="#2d72bc"/><path d="m21 49v-6.439a2.171 2.171 0 0 0 -2.969-2l-.031.007v12.262a3.114 3.114 0 0 0 2.839 3.17 3 3 0 0 0 3.161-3v-.141a3.992 3.992 0 0 1 -3-3.859z" fill="#2d72bc"/><path d="m9 51v-11.439a2.171 2.171 0 0 0 -2.969-2l-.031.007v17.262a3.114 3.114 0 0 0 2.839 3.17 3 3 0 0 0 3.161-3v-.141a3.992 3.992 0 0 1 -3-3.859z" fill="#7ab92d"/><path d="m15.973 27.267a23.028 23.028 0 0 1 -2.164-3.267h-5.809v7a2 2 0 0 0 4 0v-4a2 2 0 0 0 3.973.267z" fill="#4891d3"/><path d="m10 30v-6h-2v7a1.993 1.993 0 0 0 3.737.973 1.993 1.993 0 0 1 -1.737-1.973z" fill="#2d72bc"/><path d="m40 17a2 2 0 0 0 -2-2v3.893a2.075 2.075 0 0 0 1.664 2.08 2 2 0 0 0 2.336-1.973 2 2 0 0 1 -2-2z" fill="#4891d3"/></g></g><g id="Stroke_Cut_copy_2" data-name="Stroke Cut copy 2"><g fill="#323232"><path d="m58.949 17 2.845-3.723a1 1 0 0 0 -.509-1.566l-4.485-1.332.112-4.685a1 1 0 0 0 -1.334-.966l-4.409 1.563-2.655-3.858a1.038 1.038 0 0 0 -1.648 0l-3.09 4.49a1 1 0 1 0 1.648 1.134l2.266-3.293 2.267 3.293a1 1 0 0 0 1.158.376l3.761-1.333-.095 4a1 1 0 0 0 .715.983l3.828 1.136-2.424 3.174a1 1 0 0 0 0 1.214l2.428 3.178-3.828 1.136a1 1 0 0 0 -.715.983l.095 4-1.852-.657a1 1 0 0 0 -.669 1.885l3.221 1.142a.991.991 0 0 0 .334.058 1 1 0 0 0 1-1.024l-.114-4.687 4.487-1.332a1 1 0 0 0 .509-1.566z"/><path d="m53.69 17a6 6 0 0 0 -8.535-5.44 23.977 23.977 0 0 0 -36.74-1.886 1 1 0 1 0 1.465 1.361 21.883 21.883 0 0 1 1.908-1.812l5.744 3.977-4.3 5.16a1 1 0 0 0 .892 1.632l6.876-.859v4.867a1 1 0 0 0 1.243.97l2.757-.689v6.586l-3.11-.388a1 1 0 1 0 -.248 1.984l4.234.529a.861.861 0 0 0 .124.008 1 1 0 0 0 1-1v-9a1 1 0 0 0 -1.243-.97l-2.757.689v-4.719a1 1 0 0 0 -1.124-.992l-5.485.685 3.377-4.053a1 1 0 0 0 -.2-1.462l-6.115-4.235a22.13 22.13 0 0 1 5.8-2.874l2.747 3.293v3.638a1 1 0 0 0 .757.97l4 1a1.01 1.01 0 0 0 .243.03 1 1 0 0 0 .868-.5l4.832-8.454a21.829 21.829 0 0 1 4.2 1.852l-5.408 3.245a1 1 0 0 0 0 1.714l3.9 2.342-3.094 3.094a1 1 0 1 0 1.414 1.414l4-4a1 1 0 0 0 -.192-1.564l-3.576-2.143 4.827-2.9a21.99 21.99 0 0 1 8.272 24.325 1 1 0 1 0 1.914.583 23.945 23.945 0 0 0 .8-10.386 6 6 0 0 0 3.933-5.622zm-27.182-5.154-2.508-.627v-3.219a1 1 0 0 0 -.232-.64l-2.385-2.86a21.782 21.782 0 0 1 9.317.014zm22.874 8.762a23.861 23.861 0 0 0 -3.064-7.36 4.053 4.053 0 0 1 1.372-.248 3.99 3.99 0 0 1 1.692 7.608z"/><path d="m48 35a1 1 0 0 0 -1 1v13a2 2 0 0 1 -4 0 4.052 4.052 0 0 0 -.067-.666 1.008 1.008 0 0 0 .067-.334v-15a1 1 0 0 0 -.553-.9l-5.105-2.552 2.558-5.101a1 1 0 0 0 -.73-1.433l-5.17-.861v-.153a1 1 0 0 0 -2 0v1a1 1 0 0 0 .835.986l4.665.778-2.4 4.789a1 1 0 0 0 .448 1.342l5.452 2.723v11.938a3.959 3.959 0 0 0 -2-.556 4 4 0 0 0 -4 4v9a2 2 0 0 1 -4 0v-16a1 1 0 0 0 -2 0v7.556a3.959 3.959 0 0 0 -2-.556 4 4 0 0 0 -4 4 2 2 0 0 1 -4 0v-2a4 4 0 0 0 -4-4 3.959 3.959 0 0 0 -2 .556v-3.413a5.858 5.858 0 0 1 5.215-5.828 3.032 3.032 0 0 0 2.377-4.368 1 1 0 0 0 -1.789.895 1.032 1.032 0 0 1 -.803 1.486 7.854 7.854 0 0 0 -7 7.815v10.857a2 2 0 0 1 -4 0v-17.647a1 1 0 0 0 -.131-.5 21.979 21.979 0 0 1 .66-22.8 1 1 0 1 0 -1.678-1.088 23.978 23.978 0 0 0 -.851 24.649v17.386a4 4 0 0 0 8 0v-4a2 2 0 0 1 4 0v2a4 4 0 0 0 8 0 2 2 0 0 1 4 0v5a4 4 0 0 0 8 0v-9a2 2 0 0 1 4 0 4 4 0 0 0 8 0v-13a1 1 0 0 0 -1-1z"/><path d="m39 42v-6a1 1 0 0 0 -2 0v6a1 1 0 0 0 2 0z"/><path d="m25 45v-6a1 1 0 0 0 -2 0v6a1 1 0 0 0 2 0z"/><path d="m18 41v4a1 1 0 0 0 2 0v-4a1 1 0 0 0 -2 0z"/><path d="m35 38v-4a1 1 0 0 0 -2 0v4a1 1 0 0 0 2 0z"/><path d="m29 37a1 1 0 0 0 2 0v-6a1 1 0 0 0 -2 0z"/><path d="m8 23a1 1 0 0 0 -1 1v7a3 3 0 0 0 6 0v-1.171a3 3 0 0 0 4-2.829v-3a1 1 0 0 0 -2 0v3a1 1 0 0 1 -2 0 1 1 0 0 0 -2 0v4a1 1 0 0 1 -2 0v-7a1 1 0 0 0 -1-1z"/><path d="m38 17a1 1 0 0 0 -1 1v1a3 3 0 0 0 6 0v-4a1 1 0 0 0 -2 0v4a1 1 0 0 1 -2 0v-1a1 1 0 0 0 -1-1z"/><path d="m28 15a1 1 0 0 0 -1 1v4a1 1 0 0 0 2 0v-4a1 1 0 0 0 -1-1z"/><path d="m43 30a1 1 0 0 0 2 0v-5a1 1 0 0 0 -2 0z"/></g></g></g></svg>